<?xml version="1.0" standalone="no"?>
<!DOCTYPE svg PUBLIC "-//W3C//DTD SVG 20010904//EN"
 "http://www.w3.org/TR/2001/REC-SVG-20010904/DTD/svg10.dtd">
<svg version="1.0" xmlns="http://www.w3.org/2000/svg"
 width="889.000000pt" height="281.000000pt" viewBox="0 0 889.000000 281.000000"
 preserveAspectRatio="xMidYMid meet">

<g transform="translate(0.000000,281.000000) scale(0.100000,-0.100000)"
fill="#000000" stroke="none">
<path d="M7360 1899 l0 -290 -32 34 c-132 139 -387 135 -531 -10 -69 -69 -98
-134 -104 -237 -16 -242 141 -412 377 -410 108 1 187 29 248 89 l42 42 0 -58
0 -59 50 0 50 0 0 595 0 595 -50 0 -50 0 0 -291z m-193 -254 c61 -18 144 -88
176 -149 18 -33 22 -58 22 -131 0 -81 -3 -95 -29 -143 -31 -55 -95 -110 -160
-137 -51 -21 -171 -19 -222 4 -127 58 -191 186 -164 332 32 184 193 279 377
224z"/>
<path d="M3363 2126 c-156 -51 -241 -168 -231 -315 6 -77 32 -134 85 -186 48
-47 81 -63 223 -113 191 -65 246 -104 260 -181 18 -97 -25 -183 -116 -233 -42
-24 -61 -28 -129 -28 -98 0 -161 26 -218 89 -41 45 -43 45 -110 -2 l-29 -20
39 -39 c121 -125 331 -161 498 -84 170 78 227 300 116 454 -36 49 -125 95
-277 142 -107 32 -183 73 -208 112 -46 71 -37 185 21 249 46 51 110 74 198 73
81 -1 127 -18 182 -68 l40 -35 42 31 42 31 -33 34 c-18 19 -60 49 -93 66 -53
27 -71 31 -160 34 -65 2 -115 -2 -142 -11z"/>
<path d="M620 1800 l0 -40 115 0 115 0 0 40 0 40 -115 0 -115 0 0 -40z"/>
<path d="M2456 1831 c-3 -5 -3 -23 0 -40 l7 -32 111 3 111 3 3 38 3 37 -115 0
c-63 0 -117 -4 -120 -9z"/>
<path d="M4313 1740 c-65 -14 -151 -60 -189 -102 l-34 -38 0 65 0 65 -45 0
-45 0 0 -545 0 -545 45 0 45 0 0 242 0 242 38 -38 c20 -22 66 -53 102 -70 58
-27 75 -30 155 -30 139 1 221 39 304 139 57 69 76 130 75 240 -1 124 -26 187
-108 269 -46 48 -75 67 -121 84 -70 25 -163 34 -222 22z m202 -107 c47 -25
105 -84 131 -133 15 -27 19 -57 19 -135 0 -93 -2 -104 -31 -155 -22 -38 -48
-67 -88 -95 -54 -38 -63 -40 -141 -44 -73 -3 -91 0 -138 22 -137 63 -206 192
-177 331 20 99 108 196 204 226 52 16 176 6 221 -17z"/>
<path d="M5230 1740 c-111 -24 -208 -102 -258 -208 -24 -51 -27 -69 -27 -167
0 -102 2 -115 31 -175 17 -36 49 -83 70 -105 133 -136 393 -137 528 -2 l50 50
-34 28 -34 29 -36 -34 c-88 -86 -234 -112 -338 -60 -79 39 -129 111 -146 207
l-7 37 307 0 307 0 -5 83 c-5 93 -26 148 -83 215 -69 80 -211 125 -325 102z
m176 -104 c27 -13 66 -42 86 -65 36 -42 66 -120 53 -140 -7 -12 -496 -16 -508
-5 -11 11 21 94 52 133 77 97 207 128 317 77z"/>
<path d="M6104 1740 c-192 -38 -319 -235 -285 -442 15 -92 45 -152 106 -214
104 -106 297 -133 440 -62 43 22 125 96 124 113 0 5 -14 21 -30 34 l-30 23
-34 -35 c-111 -114 -305 -117 -412 -7 -34 35 -73 123 -73 165 l0 25 306 0 307
0 -6 75 c-12 165 -104 281 -252 320 -64 16 -97 17 -161 5z m185 -104 c70 -37
131 -123 131 -186 l0 -30 -256 0 -256 0 6 31 c15 78 96 173 168 197 47 16 166
9 207 -12z"/>
<path d="M7590 1725 c0 -3 64 -162 141 -353 78 -191 144 -354 146 -363 8 -29
-76 -226 -113 -266 -33 -35 -35 -36 -93 -30 l-58 6 -6 -36 c-4 -20 -4 -39 -2
-44 9 -14 102 -20 143 -9 90 24 114 61 229 355 41 104 105 269 143 365 38 96
86 220 108 275 l40 100 -46 3 c-24 2 -48 0 -52 -5 -5 -4 -34 -75 -65 -158 -31
-82 -82 -217 -113 -299 l-56 -148 -18 38 c-10 22 -64 158 -121 304 l-103 265
-52 3 c-29 2 -52 1 -52 -3z"/>
<path d="M1354 1671 c-2 -2 -4 -19 -4 -38 l0 -33 120 0 120 0 0 35 c0 30 -4
35 -22 35 -13 1 -65 2 -116 3 -52 1 -96 0 -98 -2z"/>
<path d="M2168 1672 l-78 -3 0 -34 0 -35 116 0 115 0 -3 37 c-3 41 -2 41 -150
35z"/>
<path d="M620 1635 l0 -35 115 0 115 0 0 35 0 35 -115 0 -115 0 0 -35z"/>
<path d="M2457 1662 c-3 -4 -3 -19 0 -35 l5 -27 114 0 114 0 0 35 0 35 -114 0
c-63 0 -117 -3 -119 -8z"/>
<path d="M620 1475 l0 -35 115 0 115 0 0 35 0 35 -115 0 -115 0 0 -35z"/>
<path d="M990 1475 l0 -35 115 0 115 0 0 35 0 35 -115 0 -115 0 0 -35z"/>
<path d="M1350 1475 l0 -35 120 0 120 0 0 35 0 35 -120 0 -120 0 0 -35z"/>
<path d="M2090 1475 l0 -35 115 0 115 0 0 35 0 35 -115 0 -115 0 0 -35z"/>
<path d="M2460 1475 l0 -35 115 0 115 0 0 35 0 35 -115 0 -115 0 0 -35z"/>
<path d="M620 1310 l0 -40 115 0 115 0 0 40 0 40 -115 0 -115 0 0 -40z"/>
<path d="M990 1310 l0 -40 115 0 115 0 0 40 0 40 -115 0 -115 0 0 -40z"/>
<path d="M1352 1313 l3 -38 115 0 115 0 3 38 3 37 -121 0 -121 0 3 -37z"/>
<path d="M2090 1310 l0 -40 115 0 115 0 0 40 0 40 -115 0 -115 0 0 -40z"/>
<path d="M2460 1310 l0 -41 113 3 112 3 3 38 3 37 -115 0 -116 0 0 -40z"/>
<path d="M627 1183 c-4 -3 -7 -21 -7 -40 l0 -33 115 0 115 0 0 40 0 40 -108 0
c-60 0 -112 -3 -115 -7z"/>
<path d="M990 1150 l0 -40 116 0 115 0 -3 38 -3 37 -112 3 -113 3 0 -41z"/>
<path d="M1357 1184 c-4 -4 -7 -22 -7 -41 l0 -33 121 0 120 0 -3 38 -3 37
-111 3 c-60 1 -113 -1 -117 -4z"/>
<path d="M1720 1150 l0 -40 115 0 115 0 0 40 0 40 -115 0 -115 0 0 -40z"/>
<path d="M2090 1150 l0 -40 115 0 115 0 0 40 0 40 -115 0 -115 0 0 -40z"/>
<path d="M2457 1183 c-2 -5 -3 -21 -3 -38 l1 -30 118 -3 117 -3 0 35 c0 22 -6
36 -16 40 -23 9 -212 7 -217 -1z"/>
<path d="M620 985 l0 -35 115 0 115 0 0 35 0 35 -115 0 -115 0 0 -35z"/>
<path d="M990 985 l0 -35 115 0 115 0 0 35 0 35 -115 0 -115 0 0 -35z"/>
<path d="M1350 985 l0 -35 120 0 120 0 0 35 0 35 -120 0 -120 0 0 -35z"/>
<path d="M1720 985 l0 -35 115 0 115 0 0 35 0 35 -115 0 -115 0 0 -35z"/>
<path d="M2090 985 l0 -35 115 0 115 0 0 35 0 35 -115 0 -115 0 0 -35z"/>
<path d="M2454 988 l1 -33 118 -3 117 -3 0 36 0 35 -118 0 -118 0 0 -32z"/>
</g>
</svg>
